<svg fill="none" xmlns="http://www.w3.org/2000/svg" viewBox="0 0 830 136"><path d="m258.823 89.704-1.945 7.244h-24.835l2.235-8.278H226l11.093-41.392h8.278L247.565 39h41.391l-4.429 16.557h-8.278l2.235-8.279h-24.835L242.557 88.67h15.521l1.283-1.035 4.181-15.522h-8.278l2.193-8.278h24.835l-8.857 33.113h-8.279l2.235-8.278h-7.243l-1.325 1.034Z" fill="url(#a)"/><path d="M281.713 96.948 297.235 39h41.391l-2.194 8.278h-24.835l-4.47 16.557h24.835l-2.194 8.278h-24.835l-4.429 16.557h24.835l-2.235 8.278h-41.391Z" fill="url(#b)"/><path d="m346.325 72.113-6.664 24.835h-8.279L346.904 39h16.557l-4.429 16.557h8.278l-4.429 16.556h8.279L380.017 39h16.557l-15.522 57.948h-16.556l2.235-8.278h-16.557l4.429-16.557h-8.278Z" fill="url(#c)"/><path d="m404.273 72.113-6.664 24.835h-8.279L404.852 39h16.557l-4.429 16.557h8.278l-4.429 16.556h8.278L437.965 39h16.557L439 96.948h-16.557l2.236-8.278h-16.557l4.429-16.557h-8.278Z" fill="url(#d)"/><path d="m487.055 72.113 6.664-24.835h-16.556l-6.664 24.835h16.556Zm-18.791 8.278-4.429 16.557h-16.557l13.328-49.67h8.279L471.078 39h33.113l-2.193 8.278h8.278l-13.328 49.67h-16.557l4.429-16.557h-16.556Z" fill="url(#e)"/><path d="M505.226 96.948 520.748 39h16.557l-15.522 57.948h-16.557Z" fill="url(#f)"/><path d="m549.95 84.53 3.332-12.417h-8.279l-3.332 12.418h8.279Zm-9.396 4.14-2.215 8.278h-8.278l6.664-24.835h4.139l1.097-4.139h16.557l-1.097 4.14h4.139l-6.664 24.834h-8.278l2.214-8.278h-8.278Z" fill="url(#g)"/><path d="M582.256 72.113h-8.279l-2.235 8.278h8.278l2.236-8.278Zm1.904 8.278-1.097 4.14h-12.418l-3.332 12.417h-8.278l7.761-28.974h20.696l-1.097 4.14h4.139l-2.235 8.277h-4.139Z" fill="url(#h)"/><path d="m588.009 96.948 7.761-28.974h8.278l-7.761 28.974h-8.278Z" fill="url(#i)"/><path fill-rule="evenodd" clip-rule="evenodd" d="M257.727 88.319h-15.521l11.093-41.392h24.834l-2.235 8.279h8.278l4.429-16.557h-41.391l-2.194 8.278h-8.278L225.649 88.32h8.278l-2.235 8.278h24.835l1.945-7.243 1.325-1.035h7.243l-2.235 8.278h8.279l8.857-33.113h-24.834l-2.194 8.278h8.278l-4.18 15.522-1.284 1.035Zm-1.025-2.65 3.032-11.258h-4.821a2.65 2.65 0 0 1-2.561-3.327l2.194-8.279a2.65 2.65 0 0 1 2.561-1.97h24.834a2.65 2.65 0 0 1 2.559 3.333l-8.857 33.113a2.65 2.65 0 0 1-2.559 1.965h-8.279a2.649 2.649 0 0 1-2.557-3.34l1.333-4.938h-2.799l-1.697 6.316a2.648 2.648 0 0 1-2.558 1.962h-24.835a2.649 2.649 0 0 1-2.557-3.34l1.333-4.938h-4.819a2.65 2.65 0 0 1-2.559-3.335l11.093-41.391a2.65 2.65 0 0 1 2.559-1.964h6.24l1.671-6.307A2.65 2.65 0 0 1 247.214 36h41.391a2.65 2.65 0 0 1 2.559 3.334l-4.428 16.556a2.65 2.65 0 0 1-2.56 1.965h-8.278a2.649 2.649 0 0 1-2.557-3.34l1.333-4.939h-19.343l-9.673 36.094h11.044Zm22.558 12.54a2.65 2.65 0 0 1-.457-2.297l15.522-57.948A2.65 2.65 0 0 1 296.884 36h41.391a2.648 2.648 0 0 1 2.561 3.328l-2.194 8.278a2.65 2.65 0 0 1-2.561 1.97h-22.806l-3.04 11.259h21.376a2.648 2.648 0 0 1 2.561 3.327l-2.194 8.279a2.65 2.65 0 0 1-2.561 1.97h-22.801l-3.012 11.259h21.384a2.65 2.65 0 0 1 2.558 3.34l-2.235 8.277a2.65 2.65 0 0 1-2.558 1.959h-41.391a2.65 2.65 0 0 1-2.102-1.036Zm20.894-9.89 4.428-16.557h24.835l2.194-8.278h-24.835l4.47-16.557h24.835l2.194-8.278h-41.391l-15.522 57.948h41.391l2.235-8.278h-24.834Zm54.098-16.557h-8.278l-6.664 24.835h-8.278l15.521-57.948h16.557l-4.429 16.557h8.278l-4.429 16.556h8.279l8.857-33.113h16.557l-15.522 57.948h-16.556l2.235-8.278h-16.557l4.429-16.557Zm8.669 19.206h-13.098a2.648 2.648 0 0 1-2.559-3.334l3.537-13.223h-2.795l-6.138 22.873a2.648 2.648 0 0 1-2.558 1.962h-8.278a2.649 2.649 0 0 1-2.559-3.334l15.521-57.948A2.65 2.65 0 0 1 346.553 36h16.557a2.649 2.649 0 0 1 2.559 3.334l-3.537 13.223h4.827a2.65 2.65 0 0 1 2.559 3.333l-3.537 13.223h2.794l8.332-31.148A2.65 2.65 0 0 1 379.666 36h16.557a2.648 2.648 0 0 1 2.559 3.334L383.26 97.282a2.65 2.65 0 0 1-2.559 1.964h-16.556a2.65 2.65 0 0 1-2.558-3.34l1.334-4.938ZM412.2 71.762h-8.278l-6.664 24.835h-8.279l15.522-57.948h16.557l-4.429 16.557h8.278l-4.429 16.556h8.279l8.857-33.113h16.557l-15.522 57.948h-16.556l2.235-8.278h-16.557l4.429-16.557Zm8.669 19.206h-13.098a2.648 2.648 0 0 1-2.559-3.334l3.537-13.223h-2.795l-6.138 22.873a2.648 2.648 0 0 1-2.558 1.962h-8.279a2.648 2.648 0 0 1-2.558-3.334l15.521-57.948A2.65 2.65 0 0 1 404.501 36h16.557a2.649 2.649 0 0 1 2.559 3.334l-3.537 13.223h4.827a2.647 2.647 0 0 1 2.559 3.333l-3.537 13.223h2.794l8.332-31.148A2.65 2.65 0 0 1 437.614 36h16.557a2.648 2.648 0 0 1 2.559 3.334l-15.522 57.948a2.65 2.65 0 0 1-2.559 1.964h-16.556a2.65 2.65 0 0 1-2.558-3.34l1.334-4.938Zm63.6-10.928h-16.556l-4.429 16.557h-16.557l13.328-49.67h8.279l2.193-8.278h33.114l-2.194 8.278h8.278l-13.328 49.67H480.04l4.429-16.557Zm20.62-35.762 1.312-4.95a2.65 2.65 0 0 0-2.56-3.328h-33.114a2.649 2.649 0 0 0-2.56 1.97l-1.672 6.308h-6.24a2.648 2.648 0 0 0-2.558 1.963l-13.328 49.67a2.648 2.648 0 0 0 2.558 3.335h16.557a2.65 2.65 0 0 0 2.559-1.965l3.903-14.592h11.073l-3.538 13.223a2.65 2.65 0 0 0 2.559 3.334h16.557a2.65 2.65 0 0 0 2.559-1.962l13.328-49.67a2.652 2.652 0 0 0-2.559-3.336h-4.836Zm-11.72 2.65h-16.557l-6.664 24.834h16.556l6.665-24.835Zm-3.454 2.648-5.242 19.537h-11.071l5.242-19.537h11.071Zm12.859 48.634a2.647 2.647 0 0 1-.458-2.298l15.522-57.948A2.65 2.65 0 0 1 520.397 36h16.557a2.648 2.648 0 0 1 2.558 3.334l-15.521 57.948a2.65 2.65 0 0 1-2.559 1.964h-16.557c-.823 0-1.6-.383-2.101-1.036Zm2.101-1.613h16.557l15.522-57.948h-16.557l-15.522 57.948Zm43.606-8.278h-8.278l-2.215 8.278h-8.278l6.664-24.835h4.139l1.097-4.139h16.557l-1.097 4.14h4.139l-6.664 24.834h-8.278l2.214-8.278Zm12.031-19.206.215-.811a2.646 2.646 0 0 0-2.56-3.328H541.61a2.65 2.65 0 0 0-2.561 1.97l-.574 2.17h-2.101a2.648 2.648 0 0 0-2.558 1.962l-6.664 24.834a2.648 2.648 0 0 0 2.558 3.336h8.278c1.2 0 2.25-.806 2.559-1.965l1.689-6.313h2.794l-1.322 4.944a2.65 2.65 0 0 0 2.559 3.334h8.278c.824 0 1.578-.38 2.07-.995a2.648 2.648 0 0 0 2.069.995h8.278a2.65 2.65 0 0 0 2.559-1.962l2.805-10.455h10.386a2.648 2.648 0 0 0 2.56-1.97l.575-2.17h2.101c.248 0 .489-.034.719-.099l-3.568 13.322a2.647 2.647 0 0 0 2.559 3.334h8.278a2.65 2.65 0 0 0 2.559-1.964l7.761-28.974a2.65 2.65 0 0 0-2.559-3.334h-8.278a2.65 2.65 0 0 0-2.559 1.964l-.793 2.962a2.651 2.651 0 0 0-1.884-.787h-.697l.215-.811a2.646 2.646 0 0 0-2.56-3.328h-20.696a2.65 2.65 0 0 0-2.559 1.964l-.793 2.962a2.651 2.651 0 0 0-1.884-.787h-.697Zm25.532 2.65 1.097-4.14h-20.696l-7.761 28.974h8.278l3.332-12.417h12.418l1.097-4.14h4.139l2.235-8.278h-4.139Zm-33.113 0h-8.279L541.32 84.18h8.279l3.332-12.418Zm-5.364 9.767 1.91-7.119h-2.793l-1.91 7.12h2.793Zm28.088-7.119-.805 2.98h2.791l.804-2.98h-2.79Zm-2.029-2.649-2.235 8.278h8.279l2.235-8.278h-8.279Zm14.032 24.835h8.278l7.761-28.974h-8.278l-7.761 28.974Z" fill="url(#j)"/><defs><linearGradient id="a" x1="412.289" y1="13.944" x2="412.289" y2="113.725" gradientUnits="userSpaceOnUse"><stop stop-color="#FFF5BE"/><stop offset=".313" stop-color="#FEDB5D"/><stop offset=".685" stop-color="#FABD2C"/><stop offset="1" stop-color="#F59F22"/></linearGradient><linearGradient id="b" x1="412.289" y1="13.944" x2="412.289" y2="113.725" gradientUnits="userSpaceOnUse"><stop stop-color="#FFF5BE"/><stop offset=".313" stop-color="#FEDB5D"/><stop offset=".685" stop-color="#FABD2C"/><stop offset="1" stop-color="#F59F22"/></linearGradient><linearGradient id="c" x1="412.289" y1="13.944" x2="412.289" y2="113.725" gradientUnits="userSpaceOnUse"><stop stop-color="#FFF5BE"/><stop offset=".313" stop-color="#FEDB5D"/><stop offset=".685" stop-color="#FABD2C"/><stop offset="1" stop-color="#F59F22"/></linearGradient><linearGradient id="d" x1="412.289" y1="13.944" x2="412.289" y2="113.725" gradientUnits="userSpaceOnUse"><stop stop-color="#FFF5BE"/><stop offset=".313" stop-color="#FEDB5D"/><stop offset=".685" stop-color="#FABD2C"/><stop offset="1" stop-color="#F59F22"/></linearGradient><linearGradient id="e" x1="412.289" y1="13.944" x2="412.289" y2="113.725" gradientUnits="userSpaceOnUse"><stop stop-color="#FFF5BE"/><stop offset=".313" stop-color="#FEDB5D"/><stop offset=".685" stop-color="#FABD2C"/><stop offset="1" stop-color="#F59F22"/></linearGradient><linearGradient id="f" x1="412.289" y1="13.944" x2="412.289" y2="113.725" gradientUnits="userSpaceOnUse"><stop stop-color="#FFF5BE"/><stop offset=".313" stop-color="#FEDB5D"/><stop offset=".685" stop-color="#FABD2C"/><stop offset="1" stop-color="#F59F22"/></linearGradient><linearGradient id="g" x1="412.289" y1="13.944" x2="412.289" y2="113.725" gradientUnits="userSpaceOnUse"><stop stop-color="#FFF5BE"/><stop offset=".313" stop-color="#FEDB5D"/><stop offset=".685" stop-color="#FABD2C"/><stop offset="1" stop-color="#F59F22"/></linearGradient><linearGradient id="h" x1="412.289" y1="13.944" x2="412.289" y2="113.725" gradientUnits="userSpaceOnUse"><stop stop-color="#FFF5BE"/><stop offset=".313" stop-color="#FEDB5D"/><stop offset=".685" stop-color="#FABD2C"/><stop offset="1" stop-color="#F59F22"/></linearGradient><linearGradient id="i" x1="412.289" y1="13.944" x2="412.289" y2="113.725" gradientUnits="userSpaceOnUse"><stop stop-color="#FFF5BE"/><stop offset=".313" stop-color="#FEDB5D"/><stop offset=".685" stop-color="#FABD2C"/><stop offset="1" stop-color="#F59F22"/></linearGradient><linearGradient id="j" x1="411.938" y1="13.594" x2="411.938" y2="113.374" gradientUnits="userSpaceOnUse"><stop stop-color="#8EC5CF"/><stop offset=".479" stop-color="#0083A1"/><stop offset="1" stop-color="#00809D"/></linearGradient></defs></svg>